<?xml version="1.0" encoding="UTF-8" standalone="no"?><!DOCTYPE svg PUBLIC "-//W3C//DTD SVG 1.1//EN" "http://www.w3.org/Graphics/SVG/1.1/DTD/svg11.dtd"><svg width="100%" height="100%" viewBox="0 0 1134 426" version="1.1" xmlns="http://www.w3.org/2000/svg" xmlns:xlink="http://www.w3.org/1999/xlink" xml:space="preserve" xmlns:serif="http://www.serif.com/" style="fill-rule:evenodd;clip-rule:evenodd;stroke-linejoin:round;stroke-miterlimit:2;"><g transform="matrix(97.879,0,0,97.879,991.793,364.743)"></g><text x="169.217px" y="364.743px" style="font-family:'GetVoIPGrotesque', 'GetVoIP Grotesque', sans-serif;font-weight:700;font-size:97.879px;">A<tspan x="250.849px 328.467px 406.085px 485.073px 565.53px 645.986px 723.996px 801.418px 891.858px " y="364.743px 364.743px 364.743px 364.743px 364.743px 364.743px 364.743px 364.743px 364.743px ">CCESSFLOW</tspan></text><g><path d="M250.587,195.088l-129.957,158.242c-19.074,23.226 -53.416,26.596 -76.641,7.522l-0.131,-0.107c-23.225,-19.074 -26.596,-53.416 -7.522,-76.641l129.957,-158.243c19.074,-23.225 53.416,-26.596 76.641,-7.522l0.131,0.108c23.225,19.074 26.596,53.415 7.522,76.641Z" style="fill:#ff9e00;"/><path d="M466.846,103.164l-129.958,158.243c-19.073,23.225 -53.415,26.596 -76.64,7.522l-0.131,-0.108c-23.226,-19.073 -26.596,-53.415 -7.522,-76.64l129.957,-158.243c19.074,-23.226 53.415,-26.596 76.641,-7.522l0.131,0.107c23.225,19.074 26.595,53.416 7.522,76.641Z" style="fill:#00cbef;"/><g><path d="M191.966,266.771c-46.87,-38.705 -53.676,-108.163 -15.127,-155.236c38.549,-47.073 107.985,-54.095 155.172,-15.775l-140.045,171.011Z" style="fill:#ff1e43;"/><path d="M191.915,266.896c47.186,38.32 116.622,31.298 155.171,-15.775c38.55,-47.074 31.744,-116.532 -15.127,-155.237l-140.044,171.012Z" style="fill:#008cee;"/></g></g></svg>