<?xml version="1.0" encoding="UTF-8" standalone="no"?><!DOCTYPE svg PUBLIC "-//W3C//DTD SVG 1.1//EN" "http://www.w3.org/Graphics/SVG/1.1/DTD/svg11.dtd"><svg width="100%" height="100%" viewBox="0 0 567 567" version="1.1" xmlns="http://www.w3.org/2000/svg" xmlns:xlink="http://www.w3.org/1999/xlink" xml:space="preserve" xmlns:serif="http://www.serif.com/" style="fill-rule:evenodd;clip-rule:evenodd;stroke-linejoin:round;stroke-miterlimit:2;"><g><path d="M281.567,286.242l-147.196,179.234c-21.604,26.306 -60.501,30.124 -86.807,8.52l-0.148,-0.122c-26.306,-21.604 -30.124,-60.501 -8.52,-86.807l147.196,-179.234c21.604,-26.306 60.501,-30.124 86.807,-8.52l0.149,0.122c26.306,21.604 30.123,60.501 8.519,86.807Z" style="fill:#ff9e00;"/><path d="M526.513,182.125l-147.196,179.234c-21.604,26.306 -60.501,30.123 -86.807,8.519l-0.149,-0.121c-26.306,-21.604 -30.123,-60.501 -8.519,-86.807l147.196,-179.234c21.604,-26.306 60.501,-30.124 86.807,-8.52l0.148,0.122c26.306,21.604 30.124,60.501 8.52,86.807Z" style="fill:#00cbef;"/><g><path d="M215.171,367.435c-53.088,-43.84 -60.797,-122.511 -17.134,-175.829c43.662,-53.317 122.31,-61.271 175.755,-17.868l-158.621,193.697Z" style="fill:#ff1e43;"/><path d="M215.112,367.576c53.446,43.403 132.093,35.45 175.756,-17.868c43.662,-53.318 35.954,-131.989 -17.135,-175.828l-158.621,193.696Z" style="fill:#008cee;"/></g></g></svg>